{"title":"Udta Punjab 2016 - Censor Board Rip - 1CDRip - x264 - AAC - Maki","uid":14938196,"size":731562827,"categoryP":"video","categoryS":"movies","magnet":"?xt=urn:btih:7ddd03876222b6dd4b8ca6de21c572770b85aff3&amp;dn=Udta+Punjab+2016+-+Censor+Board+Rip+-+1CDRip+-+x264+-+AAC+-+Maki&amp;tr=udp%3A%2F%2Ftracker.leechers-paradise.org%3A6969&amp;tr=udp%3A%2F%2Fzer0day.ch%3A1337&amp;tr=udp%3A%2F%2Fopen.demonii.com%3A1337&amp;tr=udp%3A%2F%2Ftracker.coppersurfer.tk%3A6969&amp;tr=udp%3A%2F%2Fexodus.desync.com%3A6969","seeders":1,"leechers":0,"uploader":"makintos13","files":1,"time":1466008658,"description":"Udta Punjab 2016 - Censor Board Rip - 1CDRip - x264 - AAC - Makintos13 \r\n\r\n \nhttps://imgmak.com/image/Toc\r\n \nhttps://imgmak.com/image/Ton\r\n \nhttps://imgmak.com/image/Tor\r\n \nhttps://imgmak.com/image/ToB\r\n \nhttps://imgmak.com/image/Tot\r\n\r\nFormat : Matroska\r\nFormat version : Version 4 / Version 2\r\nFile size : 698 MiB\r\nDuration : 2h 28mn\r\nOverall bit rate : 657 Kbps\r\n\r\n\r\nVideo\r\nID : 2\r\nFormat : AVC\r\nFormat/Info : Advanced Video Codec\r\nFormat profile :   \r\nFormat settings, CABAC : Yes\r\nFormat settings, ReFrames : 4 frames\r\nCodec ID : V_MPEG4/ISO/AVC\r\nDuration : 2h 28mn\r\nBit rate : 591 Kbps\r\nWidth : 640 pixels\r\nHeight : 272 pixels\r\nDisplay aspect ratio : 2.35:1\r\nFrame rate mode : Constant\r\nFrame rate : 23.976 (24000/1001) fps\r\nColor space : YUV\r\nChroma subsampling : 4:2:0\r\nBit depth : 8 bits\r\nScan type : Progressive\r\nBits/(Pixel*Frame) : 0.142\r\nStream size : 628 MiB (90%)\r\nDefault : Yes\r\nForced : No\r\n\r\nAudio\r\nID : 1\r\nFormat : AAC\r\nFormat/Info : Advanced Audio Codec\r\nFormat profile : LC\r\nCodec ID : A_AAC\r\nDuration : 2h 28mn\r\nBit rate : 63.6 Kbps\r\nChannel(s) : 2 channels\r\nChannel positions : Front: L R\r\nSampling rate : 48.0 KHz\r\nFrame rate : 46.875 fps (1024 spf)\r\nCompression mode : Lossy\r\nDelay relative to video : 62ms\r\nStream size : 67.6 MiB (10%)\r\nTitle : Stereo\r\nLanguage : Hindi\r\nDefault : Yes\r\nForced : No\r\nSource : IcTv Thanks","torrent":{"xt":"urn:btih:7ddd03876222b6dd4b8ca6de21c572770b85aff3","amp;dn":"Udta+Punjab+2016+-+Censor+Board+Rip+-+1CDRip+-+x264+-+AAC+-+Maki","amp;tr":["udp%3A%2F%2Ftracker.leechers-paradise.org%3A6969","udp%3A%2F%2Fzer0day.ch%3A1337","udp%3A%2F%2Fopen.demonii.com%3A1337","udp%3A%2F%2Ftracker.coppersurfer.tk%3A6969","udp%3A%2F%2Fexodus.desync.com%3A6969"],"infoHash":"7ddd03876222b6dd4b8ca6de21c572770b85aff3","infoHashBuffer":{"type":"Buffer","data":[125,221,3,135,98,34,182,221,75,140,166,222,33,197,114,119,11,133,175,243]},"announce":[],"urlList":[]}}